<svg xmlns="http://www.w3.org/2000/svg" width="1024" height="1024" viewBox="0 0 1024 1024" role="img" aria-label="Course image">
    <defs>
        <linearGradient id="bg" x1="0%" y1="0%" x2="100%" y2="100%">
            <stop offset="0%" stop-color="#f97316"/>
            <stop offset="55%" stop-color="#ec4899"/>
            <stop offset="100%" stop-color="#334155"/>
        </linearGradient>
        <linearGradient id="panel" x1="0%" y1="0%" x2="0%" y2="100%">
            <stop offset="0%" stop-color="#ffffff" stop-opacity="0.22"/>
            <stop offset="100%" stop-color="#0f172a" stop-opacity="0.28"/>
        </linearGradient>
        <filter id="softBlur" x="-20%" y="-20%" width="140%" height="140%">
            <feGaussianBlur stdDeviation="8"/>
        </filter>
    </defs>
    <rect width="1024" height="1024" rx="64" fill="url(#bg)"/>
    <rect x="47" y="60" width="367" height="42" rx="21" fill="#e0f2fe" fill-opacity="0.14" transform="rotate(-9 47 60)"/>
<rect x="220" y="280" width="434" height="42" rx="21" fill="#fde68a" fill-opacity="0.14" transform="rotate(10 220 280)"/>
<rect x="393" y="500" width="501" height="42" rx="21" fill="#e0f2fe" fill-opacity="0.14" transform="rotate(-3 393 500)"/>
<rect x="566" y="720" width="568" height="42" rx="21" fill="#fde68a" fill-opacity="0.14" transform="rotate(-16 566 720)"/>
    <circle cx="899" cy="237" r="139" fill="#fde68a" fill-opacity="0.15" filter="url(#softBlur)"/>
<circle cx="212" cy="488" r="116" fill="#e0f2fe" fill-opacity="0.20" filter="url(#softBlur)"/>
<circle cx="349" cy="739" r="93" fill="#fde68a" fill-opacity="0.25" filter="url(#softBlur)"/>
<circle cx="486" cy="120" r="70" fill="#e0f2fe" fill-opacity="0.12" filter="url(#softBlur)"/>
<circle cx="623" cy="371" r="47" fill="#fde68a" fill-opacity="0.17" filter="url(#softBlur)"/>
<circle cx="760" cy="622" r="136" fill="#e0f2fe" fill-opacity="0.22" filter="url(#softBlur)"/>
<circle cx="897" cy="873" r="113" fill="#fde68a" fill-opacity="0.27" filter="url(#softBlur)"/>
<circle cx="210" cy="254" r="90" fill="#e0f2fe" fill-opacity="0.14" filter="url(#softBlur)"/>
    <rect x="74" y="308" width="876" height="458" rx="40" fill="url(#panel)" stroke="#ffffff" stroke-opacity="0.22"/>
    <text x="96" y="372" font-family="Arial, sans-serif" font-size="28" font-weight="700" fill="#dbeafe">ARABE • Creative cover</text>
    <text x="96" y="462" font-family="Arial, sans-serif" font-size="54" font-weight="700" fill="#ffffff">الريضيات</text>
    <text x="96" y="664" font-family="Arial, sans-serif" font-size="34" font-weight="500" fill="#eef2ff">Arabe</text>
    <rect x="96" y="706" width="260" height="58" rx="16" fill="#ffffff" fill-opacity="0.24"/>
    <text x="126" y="738" font-family="Arial, sans-serif" font-size="28" font-weight="600" fill="#ffffff">EduKids</text>
</svg>