<svg xmlns="http://www.w3.org/2000/svg" width="1024" height="1024" viewBox="0 0 1024 1024" role="img" aria-label="Course image">
    <defs>
        <linearGradient id="bg" x1="0%" y1="0%" x2="100%" y2="100%">
            <stop offset="0%" stop-color="#f97316"/>
            <stop offset="55%" stop-color="#ec4899"/>
            <stop offset="100%" stop-color="#334155"/>
        </linearGradient>
        <linearGradient id="panel" x1="0%" y1="0%" x2="0%" y2="100%">
            <stop offset="0%" stop-color="#ffffff" stop-opacity="0.22"/>
            <stop offset="100%" stop-color="#0f172a" stop-opacity="0.28"/>
        </linearGradient>
        <filter id="softBlur" x="-20%" y="-20%" width="140%" height="140%">
            <feGaussianBlur stdDeviation="8"/>
        </filter>
    </defs>
    <rect width="1024" height="1024" rx="64" fill="url(#bg)"/>
    <rect x="114" y="60" width="434" height="42" rx="21" fill="#e0f2fe" fill-opacity="0.14" transform="rotate(-6 114 60)"/>
<rect x="287" y="280" width="501" height="42" rx="21" fill="#fde68a" fill-opacity="0.14" transform="rotate(13 287 280)"/>
<rect x="460" y="500" width="568" height="42" rx="21" fill="#e0f2fe" fill-opacity="0.14" transform="rotate(0 460 500)"/>
<rect x="633" y="720" width="635" height="42" rx="21" fill="#fde68a" fill-opacity="0.14" transform="rotate(-13 633 720)"/>
    <circle cx="774" cy="484" r="126" fill="#fde68a" fill-opacity="0.16" filter="url(#softBlur)"/>
<circle cx="911" cy="735" r="103" fill="#e0f2fe" fill-opacity="0.21" filter="url(#softBlur)"/>
<circle cx="224" cy="116" r="80" fill="#fde68a" fill-opacity="0.26" filter="url(#softBlur)"/>
<circle cx="361" cy="367" r="57" fill="#e0f2fe" fill-opacity="0.13" filter="url(#softBlur)"/>
<circle cx="498" cy="618" r="146" fill="#fde68a" fill-opacity="0.18" filter="url(#softBlur)"/>
<circle cx="635" cy="869" r="123" fill="#e0f2fe" fill-opacity="0.23" filter="url(#softBlur)"/>
<circle cx="772" cy="250" r="100" fill="#fde68a" fill-opacity="0.10" filter="url(#softBlur)"/>
<circle cx="909" cy="501" r="77" fill="#e0f2fe" fill-opacity="0.15" filter="url(#softBlur)"/>
    <rect x="74" y="308" width="876" height="458" rx="40" fill="url(#panel)" stroke="#ffffff" stroke-opacity="0.22"/>
    <text x="96" y="372" font-family="Arial, sans-serif" font-size="28" font-weight="700" fill="#dbeafe">الريضيات • Creative cover</text>
    <text x="96" y="462" font-family="Arial, sans-serif" font-size="54" font-weight="700" fill="#ffffff">الفصل الأول4</text>
    <text x="96" y="664" font-family="Arial, sans-serif" font-size="34" font-weight="500" fill="#eef2ff">الريضيات</text>
    <rect x="96" y="706" width="260" height="58" rx="16" fill="#ffffff" fill-opacity="0.24"/>
    <text x="126" y="738" font-family="Arial, sans-serif" font-size="28" font-weight="600" fill="#ffffff">EduKids</text>
</svg>