<svg xmlns="http://www.w3.org/2000/svg" width="1024" height="1024" viewBox="0 0 1024 1024" role="img" aria-label="Course image">
    <defs>
        <linearGradient id="bg" x1="0%" y1="0%" x2="100%" y2="100%">
            <stop offset="0%" stop-color="#e11d48"/>
            <stop offset="55%" stop-color="#7c3aed"/>
            <stop offset="100%" stop-color="#0f172a"/>
        </linearGradient>
        <linearGradient id="panel" x1="0%" y1="0%" x2="0%" y2="100%">
            <stop offset="0%" stop-color="#ffffff" stop-opacity="0.22"/>
            <stop offset="100%" stop-color="#0f172a" stop-opacity="0.28"/>
        </linearGradient>
        <filter id="softBlur" x="-20%" y="-20%" width="140%" height="140%">
            <feGaussianBlur stdDeviation="8"/>
        </filter>
    </defs>
    <rect width="1024" height="1024" rx="64" fill="url(#bg)"/>
    <rect x="143" y="60" width="463" height="42" rx="21" fill="#cffafe" fill-opacity="0.14" transform="rotate(-9 143 60)"/>
<rect x="316" y="280" width="530" height="42" rx="21" fill="#ffe4e6" fill-opacity="0.14" transform="rotate(10 316 280)"/>
<rect x="489" y="500" width="597" height="42" rx="21" fill="#cffafe" fill-opacity="0.14" transform="rotate(-3 489 500)"/>
<rect x="662" y="720" width="664" height="42" rx="21" fill="#ffe4e6" fill-opacity="0.14" transform="rotate(-16 662 720)"/>
    <circle cx="883" cy="483" r="123" fill="#ffe4e6" fill-opacity="0.21" filter="url(#softBlur)"/>
<circle cx="196" cy="734" r="100" fill="#cffafe" fill-opacity="0.26" filter="url(#softBlur)"/>
<circle cx="333" cy="115" r="77" fill="#ffe4e6" fill-opacity="0.13" filter="url(#softBlur)"/>
<circle cx="470" cy="366" r="54" fill="#cffafe" fill-opacity="0.18" filter="url(#softBlur)"/>
<circle cx="607" cy="617" r="143" fill="#ffe4e6" fill-opacity="0.23" filter="url(#softBlur)"/>
<circle cx="744" cy="868" r="120" fill="#cffafe" fill-opacity="0.10" filter="url(#softBlur)"/>
<circle cx="881" cy="249" r="97" fill="#ffe4e6" fill-opacity="0.15" filter="url(#softBlur)"/>
<circle cx="194" cy="500" r="74" fill="#cffafe" fill-opacity="0.20" filter="url(#softBlur)"/>
    <rect x="74" y="308" width="876" height="458" rx="40" fill="url(#panel)" stroke="#ffffff" stroke-opacity="0.22"/>
    <text x="96" y="372" font-family="Arial, sans-serif" font-size="28" font-weight="700" fill="#dbeafe">ARABE • Creative cover</text>
    <text x="96" y="462" font-family="Arial, sans-serif" font-size="54" font-weight="700" fill="#ffffff">arabe</text>
    <text x="96" y="664" font-family="Arial, sans-serif" font-size="34" font-weight="500" fill="#eef2ff">arabe</text>
    <rect x="96" y="706" width="260" height="58" rx="16" fill="#ffffff" fill-opacity="0.24"/>
    <text x="126" y="738" font-family="Arial, sans-serif" font-size="28" font-weight="600" fill="#ffffff">EduKids</text>
</svg>