<svg xmlns="http://www.w3.org/2000/svg" width="1024" height="1024" viewBox="0 0 1024 1024" role="img" aria-label="Course image">
    <defs>
        <linearGradient id="bg" x1="0%" y1="0%" x2="100%" y2="100%">
            <stop offset="0%" stop-color="#0ea5a3"/>
            <stop offset="55%" stop-color="#2563eb"/>
            <stop offset="100%" stop-color="#1e293b"/>
        </linearGradient>
        <linearGradient id="panel" x1="0%" y1="0%" x2="0%" y2="100%">
            <stop offset="0%" stop-color="#ffffff" stop-opacity="0.22"/>
            <stop offset="100%" stop-color="#0f172a" stop-opacity="0.28"/>
        </linearGradient>
        <filter id="softBlur" x="-20%" y="-20%" width="140%" height="140%">
            <feGaussianBlur stdDeviation="8"/>
        </filter>
    </defs>
    <rect width="1024" height="1024" rx="64" fill="url(#bg)"/>
    <rect x="259" y="60" width="579" height="42" rx="21" fill="#f59e0b" fill-opacity="0.14" transform="rotate(11 259 60)"/>
<rect x="432" y="280" width="646" height="42" rx="21" fill="#ffffff" fill-opacity="0.14" transform="rotate(-2 432 280)"/>
<rect x="605" y="500" width="393" height="42" rx="21" fill="#f59e0b" fill-opacity="0.14" transform="rotate(-15 605 500)"/>
<rect x="138" y="720" width="460" height="42" rx="21" fill="#ffffff" fill-opacity="0.14" transform="rotate(4 138 720)"/>
    <circle cx="679" cy="799" r="111" fill="#ffffff" fill-opacity="0.13" filter="url(#softBlur)"/>
<circle cx="816" cy="180" r="88" fill="#f59e0b" fill-opacity="0.18" filter="url(#softBlur)"/>
<circle cx="129" cy="431" r="65" fill="#ffffff" fill-opacity="0.23" filter="url(#softBlur)"/>
<circle cx="266" cy="682" r="42" fill="#f59e0b" fill-opacity="0.10" filter="url(#softBlur)"/>
<circle cx="403" cy="933" r="131" fill="#ffffff" fill-opacity="0.15" filter="url(#softBlur)"/>
<circle cx="540" cy="314" r="108" fill="#f59e0b" fill-opacity="0.20" filter="url(#softBlur)"/>
<circle cx="677" cy="565" r="85" fill="#ffffff" fill-opacity="0.25" filter="url(#softBlur)"/>
<circle cx="814" cy="816" r="62" fill="#f59e0b" fill-opacity="0.12" filter="url(#softBlur)"/>
    <rect x="74" y="308" width="876" height="458" rx="40" fill="url(#panel)" stroke="#ffffff" stroke-opacity="0.22"/>
    <text x="96" y="372" font-family="Arial, sans-serif" font-size="28" font-weight="700" fill="#dbeafe">الريضيات • Creative cover</text>
    <text x="96" y="462" font-family="Arial, sans-serif" font-size="54" font-weight="700" fill="#ffffff">الفصل الأول</text>
    <text x="96" y="664" font-family="Arial, sans-serif" font-size="34" font-weight="500" fill="#eef2ff">الريضيات</text>
    <rect x="96" y="706" width="260" height="58" rx="16" fill="#ffffff" fill-opacity="0.24"/>
    <text x="126" y="738" font-family="Arial, sans-serif" font-size="28" font-weight="600" fill="#ffffff">EduKids</text>
</svg>