<svg xmlns="http://www.w3.org/2000/svg" width="1024" height="1024" viewBox="0 0 1024 1024" role="img" aria-label="Course image">
    <defs>
        <linearGradient id="bg" x1="0%" y1="0%" x2="100%" y2="100%">
            <stop offset="0%" stop-color="#e11d48"/>
            <stop offset="55%" stop-color="#7c3aed"/>
            <stop offset="100%" stop-color="#0f172a"/>
        </linearGradient>
        <linearGradient id="panel" x1="0%" y1="0%" x2="0%" y2="100%">
            <stop offset="0%" stop-color="#ffffff" stop-opacity="0.22"/>
            <stop offset="100%" stop-color="#0f172a" stop-opacity="0.28"/>
        </linearGradient>
        <filter id="softBlur" x="-20%" y="-20%" width="140%" height="140%">
            <feGaussianBlur stdDeviation="8"/>
        </filter>
    </defs>
    <rect width="1024" height="1024" rx="64" fill="url(#bg)"/>
    <rect x="368" y="60" width="368" height="42" rx="21" fill="#cffafe" fill-opacity="0.14" transform="rotate(-8 368 60)"/>
<rect x="541" y="280" width="435" height="42" rx="21" fill="#ffe4e6" fill-opacity="0.14" transform="rotate(11 541 280)"/>
<rect x="74" y="500" width="502" height="42" rx="21" fill="#cffafe" fill-opacity="0.14" transform="rotate(-2 74 500)"/>
<rect x="247" y="720" width="569" height="42" rx="21" fill="#ffe4e6" fill-opacity="0.14" transform="rotate(-15 247 720)"/>
    <circle cx="580" cy="218" r="44" fill="#ffe4e6" fill-opacity="0.20" filter="url(#softBlur)"/>
<circle cx="717" cy="469" r="133" fill="#cffafe" fill-opacity="0.25" filter="url(#softBlur)"/>
<circle cx="854" cy="720" r="110" fill="#ffe4e6" fill-opacity="0.12" filter="url(#softBlur)"/>
<circle cx="167" cy="101" r="87" fill="#cffafe" fill-opacity="0.17" filter="url(#softBlur)"/>
<circle cx="304" cy="352" r="64" fill="#ffe4e6" fill-opacity="0.22" filter="url(#softBlur)"/>
<circle cx="441" cy="603" r="41" fill="#cffafe" fill-opacity="0.27" filter="url(#softBlur)"/>
<circle cx="578" cy="854" r="130" fill="#ffe4e6" fill-opacity="0.14" filter="url(#softBlur)"/>
<circle cx="715" cy="235" r="107" fill="#cffafe" fill-opacity="0.19" filter="url(#softBlur)"/>
    <rect x="74" y="308" width="876" height="458" rx="40" fill="url(#panel)" stroke="#ffffff" stroke-opacity="0.22"/>
    <text x="96" y="372" font-family="Arial, sans-serif" font-size="28" font-weight="700" fill="#dbeafe">MATHEMATIQUE • Creative cover</text>
    <text x="96" y="462" font-family="Arial, sans-serif" font-size="54" font-weight="700" fill="#ffffff">لغة</text>
    <text x="96" y="664" font-family="Arial, sans-serif" font-size="34" font-weight="500" fill="#eef2ff">mathematique</text>
    <rect x="96" y="706" width="260" height="58" rx="16" fill="#ffffff" fill-opacity="0.24"/>
    <text x="126" y="738" font-family="Arial, sans-serif" font-size="28" font-weight="600" fill="#ffffff">EduKids</text>
</svg>