<svg xmlns="http://www.w3.org/2000/svg" width="1024" height="1024" viewBox="0 0 1024 1024" role="img" aria-label="Course image">
    <defs>
        <linearGradient id="bg" x1="0%" y1="0%" x2="100%" y2="100%">
            <stop offset="0%" stop-color="#14b8a6"/>
            <stop offset="55%" stop-color="#7c3aed"/>
            <stop offset="100%" stop-color="#0f172a"/>
        </linearGradient>
        <linearGradient id="panel" x1="0%" y1="0%" x2="0%" y2="100%">
            <stop offset="0%" stop-color="#ffffff" stop-opacity="0.22"/>
            <stop offset="100%" stop-color="#0f172a" stop-opacity="0.28"/>
        </linearGradient>
        <filter id="softBlur" x="-20%" y="-20%" width="140%" height="140%">
            <feGaussianBlur stdDeviation="8"/>
        </filter>
    </defs>
    <rect width="1024" height="1024" rx="64" fill="url(#bg)"/>
    <rect x="104" y="60" width="424" height="42" rx="21" fill="#dbeafe" fill-opacity="0.14" transform="rotate(-16 104 60)"/>
<rect x="277" y="280" width="491" height="42" rx="21" fill="#fef3c7" fill-opacity="0.14" transform="rotate(3 277 280)"/>
<rect x="450" y="500" width="558" height="42" rx="21" fill="#dbeafe" fill-opacity="0.14" transform="rotate(-10 450 500)"/>
<rect x="623" y="720" width="625" height="42" rx="21" fill="#fef3c7" fill-opacity="0.14" transform="rotate(9 623 720)"/>
    <circle cx="732" cy="664" r="84" fill="#fef3c7" fill-opacity="0.22" filter="url(#softBlur)"/>
<circle cx="869" cy="915" r="61" fill="#dbeafe" fill-opacity="0.27" filter="url(#softBlur)"/>
<circle cx="182" cy="296" r="38" fill="#fef3c7" fill-opacity="0.14" filter="url(#softBlur)"/>
<circle cx="319" cy="547" r="127" fill="#dbeafe" fill-opacity="0.19" filter="url(#softBlur)"/>
<circle cx="456" cy="798" r="104" fill="#fef3c7" fill-opacity="0.24" filter="url(#softBlur)"/>
<circle cx="593" cy="179" r="81" fill="#dbeafe" fill-opacity="0.11" filter="url(#softBlur)"/>
<circle cx="730" cy="430" r="58" fill="#fef3c7" fill-opacity="0.16" filter="url(#softBlur)"/>
<circle cx="867" cy="681" r="147" fill="#dbeafe" fill-opacity="0.21" filter="url(#softBlur)"/>
    <rect x="74" y="308" width="876" height="458" rx="40" fill="url(#panel)" stroke="#ffffff" stroke-opacity="0.22"/>
    <text x="96" y="372" font-family="Arial, sans-serif" font-size="28" font-weight="700" fill="#dbeafe">HISTOIRE MODERNE • Creative cover</text>
    <text x="96" y="462" font-family="Arial, sans-serif" font-size="54" font-weight="700" fill="#ffffff">الفصل الأول4</text>
    <text x="96" y="664" font-family="Arial, sans-serif" font-size="34" font-weight="500" fill="#eef2ff">Histoire Moderne</text>
    <rect x="96" y="706" width="260" height="58" rx="16" fill="#ffffff" fill-opacity="0.24"/>
    <text x="126" y="738" font-family="Arial, sans-serif" font-size="28" font-weight="600" fill="#ffffff">EduKids</text>
</svg>