<svg xmlns="http://www.w3.org/2000/svg" width="1024" height="1024" viewBox="0 0 1024 1024" role="img" aria-label="Course image">
    <defs>
        <linearGradient id="bg" x1="0%" y1="0%" x2="100%" y2="100%">
            <stop offset="0%" stop-color="#0ea5a3"/>
            <stop offset="55%" stop-color="#2563eb"/>
            <stop offset="100%" stop-color="#1e293b"/>
        </linearGradient>
        <linearGradient id="panel" x1="0%" y1="0%" x2="0%" y2="100%">
            <stop offset="0%" stop-color="#ffffff" stop-opacity="0.22"/>
            <stop offset="100%" stop-color="#0f172a" stop-opacity="0.28"/>
        </linearGradient>
        <filter id="softBlur" x="-20%" y="-20%" width="140%" height="140%">
            <feGaussianBlur stdDeviation="8"/>
        </filter>
    </defs>
    <rect width="1024" height="1024" rx="64" fill="url(#bg)"/>
    <rect x="68" y="60" width="388" height="42" rx="21" fill="#f59e0b" fill-opacity="0.14" transform="rotate(12 68 60)"/>
<rect x="241" y="280" width="455" height="42" rx="21" fill="#ffffff" fill-opacity="0.14" transform="rotate(-1 241 280)"/>
<rect x="414" y="500" width="522" height="42" rx="21" fill="#f59e0b" fill-opacity="0.14" transform="rotate(-14 414 500)"/>
<rect x="587" y="720" width="589" height="42" rx="21" fill="#ffffff" fill-opacity="0.14" transform="rotate(5 587 720)"/>
    <circle cx="608" cy="798" r="48" fill="#ffffff" fill-opacity="0.12" filter="url(#softBlur)"/>
<circle cx="745" cy="179" r="137" fill="#f59e0b" fill-opacity="0.17" filter="url(#softBlur)"/>
<circle cx="882" cy="430" r="114" fill="#ffffff" fill-opacity="0.22" filter="url(#softBlur)"/>
<circle cx="195" cy="681" r="91" fill="#f59e0b" fill-opacity="0.27" filter="url(#softBlur)"/>
<circle cx="332" cy="932" r="68" fill="#ffffff" fill-opacity="0.14" filter="url(#softBlur)"/>
<circle cx="469" cy="313" r="45" fill="#f59e0b" fill-opacity="0.19" filter="url(#softBlur)"/>
<circle cx="606" cy="564" r="134" fill="#ffffff" fill-opacity="0.24" filter="url(#softBlur)"/>
<circle cx="743" cy="815" r="111" fill="#f59e0b" fill-opacity="0.11" filter="url(#softBlur)"/>
    <rect x="74" y="308" width="876" height="458" rx="40" fill="url(#panel)" stroke="#ffffff" stroke-opacity="0.22"/>
    <text x="96" y="372" font-family="Arial, sans-serif" font-size="28" font-weight="700" fill="#dbeafe">SVT • Creative cover</text>
    <text x="96" y="462" font-family="Arial, sans-serif" font-size="54" font-weight="700" fill="#ffffff">الفصل الأول4</text>
    <text x="96" y="664" font-family="Arial, sans-serif" font-size="34" font-weight="500" fill="#eef2ff">svt</text>
    <rect x="96" y="706" width="260" height="58" rx="16" fill="#ffffff" fill-opacity="0.24"/>
    <text x="126" y="738" font-family="Arial, sans-serif" font-size="28" font-weight="600" fill="#ffffff">EduKids</text>
</svg>