<svg xmlns="http://www.w3.org/2000/svg" width="1024" height="1024" viewBox="0 0 1024 1024" role="img" aria-label="Course image">
    <defs>
        <linearGradient id="bg" x1="0%" y1="0%" x2="100%" y2="100%">
            <stop offset="0%" stop-color="#14b8a6"/>
            <stop offset="55%" stop-color="#7c3aed"/>
            <stop offset="100%" stop-color="#0f172a"/>
        </linearGradient>
        <linearGradient id="panel" x1="0%" y1="0%" x2="0%" y2="100%">
            <stop offset="0%" stop-color="#ffffff" stop-opacity="0.22"/>
            <stop offset="100%" stop-color="#0f172a" stop-opacity="0.28"/>
        </linearGradient>
        <filter id="softBlur" x="-20%" y="-20%" width="140%" height="140%">
            <feGaussianBlur stdDeviation="8"/>
        </filter>
    </defs>
    <rect width="1024" height="1024" rx="64" fill="url(#bg)"/>
    <rect x="395" y="60" width="395" height="42" rx="21" fill="#dbeafe" fill-opacity="0.14" transform="rotate(-13 395 60)"/>
<rect x="568" y="280" width="462" height="42" rx="21" fill="#fef3c7" fill-opacity="0.14" transform="rotate(6 568 280)"/>
<rect x="101" y="500" width="529" height="42" rx="21" fill="#dbeafe" fill-opacity="0.14" transform="rotate(-7 101 500)"/>
<rect x="274" y="720" width="596" height="42" rx="21" fill="#fef3c7" fill-opacity="0.14" transform="rotate(12 274 720)"/>
    <circle cx="639" cy="775" r="87" fill="#fef3c7" fill-opacity="0.25" filter="url(#softBlur)"/>
<circle cx="776" cy="156" r="64" fill="#dbeafe" fill-opacity="0.12" filter="url(#softBlur)"/>
<circle cx="913" cy="407" r="41" fill="#fef3c7" fill-opacity="0.17" filter="url(#softBlur)"/>
<circle cx="226" cy="658" r="130" fill="#dbeafe" fill-opacity="0.22" filter="url(#softBlur)"/>
<circle cx="363" cy="909" r="107" fill="#fef3c7" fill-opacity="0.27" filter="url(#softBlur)"/>
<circle cx="500" cy="290" r="84" fill="#dbeafe" fill-opacity="0.14" filter="url(#softBlur)"/>
<circle cx="637" cy="541" r="61" fill="#fef3c7" fill-opacity="0.19" filter="url(#softBlur)"/>
<circle cx="774" cy="792" r="38" fill="#dbeafe" fill-opacity="0.24" filter="url(#softBlur)"/>
    <rect x="74" y="308" width="876" height="458" rx="40" fill="url(#panel)" stroke="#ffffff" stroke-opacity="0.22"/>
    <text x="96" y="372" font-family="Arial, sans-serif" font-size="28" font-weight="700" fill="#dbeafe">SVT • Creative cover</text>
    <text x="96" y="462" font-family="Arial, sans-serif" font-size="54" font-weight="700" fill="#ffffff">svt</text>
    <text x="96" y="664" font-family="Arial, sans-serif" font-size="34" font-weight="500" fill="#eef2ff">svt</text>
    <rect x="96" y="706" width="260" height="58" rx="16" fill="#ffffff" fill-opacity="0.24"/>
    <text x="126" y="738" font-family="Arial, sans-serif" font-size="28" font-weight="600" fill="#ffffff">EduKids</text>
</svg>